<svg width="24" height="24" viewBox="0 0 24 24" fill="none" xmlns="http://www.w3.org/2000/svg">
<path d="M23.019 19.4861C23.019 20.0165 22.8083 20.5252 22.4333 20.9003C22.0582 21.2754 21.5495 21.4861 21.019 21.4861H3.01904C2.48861 21.4861 1.9799 21.2754 1.60483 20.9003C1.22976 20.5252 1.01904 20.0165 1.01904 19.4861V8.48608C1.01904 7.95565 1.22976 7.44694 1.60483 7.07187C1.9799 6.6968 2.48861 6.48608 3.01904 6.48608H7.01904L9.01904 3.48608H15.019L17.019 6.48608H21.019C21.5495 6.48608 22.0582 6.6968 22.4333 7.07187C22.8083 7.44694 23.019 7.95565 23.019 8.48608V19.4861Z" stroke="#12121D" stroke-width="1.5" stroke-linecap="round" stroke-linejoin="round"/>
<path d="M12.019 17.4861C14.2282 17.4861 16.019 15.6952 16.019 13.4861C16.019 11.2769 14.2282 9.48608 12.019 9.48608C9.8099 9.48608 8.01904 11.2769 8.01904 13.4861C8.01904 15.6952 9.8099 17.4861 12.019 17.4861Z" stroke="#12121D" stroke-width="1.5" stroke-linecap="round" stroke-linejoin="round"/>
</svg>
