<svg width="16" height="16" viewBox="0 0 16 16" fill="none" xmlns="http://www.w3.org/2000/svg">
    <circle cx="8" cy="8" r="8" fill="#12121D" fill-opacity="0.1" />
    <path fill-rule="evenodd" clip-rule="evenodd"
        d="M10.7972 6.18184C11.0676 5.91148 11.0676 5.47314 10.7972 5.20277C10.5269 4.93241 10.0885 4.93241 9.81816 5.20277L8 7.02093L6.18184 5.20277C5.91148 4.93241 5.47314 4.93241 5.20277 5.20277C4.93241 5.47314 4.93241 5.91148 5.20277 6.18184L7.02093 8L5.20277 9.81816C4.93241 10.0885 4.93241 10.5269 5.20277 10.7972C5.47314 11.0676 5.91148 11.0676 6.18184 10.7972L8 8.97907L9.81816 10.7972C10.0885 11.0676 10.5269 11.0676 10.7972 10.7972C11.0676 10.5269 11.0676 10.0885 10.7972 9.81816L8.97907 8L10.7972 6.18184Z"
        fill="#12121D" fill-opacity="0.3" />
</svg>
