<svg width="24" height="23" viewBox="0 0 24 23" fill="none" xmlns="http://www.w3.org/2000/svg">
    <path
        d="M13.0366 1.52607C13.0277 1.47749 13.0209 1.42687 13.0175 1.37555C12.9682 0.667461 13.5012 0.0530963 14.2099 0.00315349C14.9187 -0.0461052 15.5331 0.48753 15.5823 1.19631C15.6316 1.9044 15.0987 2.51877 14.3899 2.56871C14.3454 2.57213 14.3009 2.57281 14.2572 2.57076C14.2284 2.57829 14.2113 2.58171 14.1867 2.6036C14.1142 2.71717 14.3721 2.69596 14.1963 3.19265C14.1963 3.19265 14.1949 3.24738 14.1757 3.30143C14.1621 3.49231 14.0889 4.05673 14.0779 4.35776C14.1149 4.40154 14.1258 4.42275 14.1217 4.52811C14.1053 4.6711 14.0724 5.02138 14.0198 5.24578C13.9753 5.43802 13.8966 5.47497 13.833 5.52218C13.744 5.92035 13.7208 6.25079 13.4923 6.73449C13.4718 7.10119 13.4458 7.20107 13.3691 7.38032C13.3602 7.92011 13.3979 8.00084 13.0332 8.85603C12.9388 9.25626 13.0284 9.53265 13.1276 9.94861C13.2289 10.3755 13.5107 10.5541 13.5532 10.9919C13.6517 12.0223 13.6271 12.7235 13.4061 13.5308L13.599 13.9878C13.8385 14.0973 14.4323 14.3976 14.1032 14.8731C14.5671 15.1167 15.2676 15.376 15.8457 15.8706C16.0784 16.0642 16.324 16.2756 16.5443 16.5233C16.9636 16.589 16.9192 16.6218 17.2305 16.8134C18.1452 17.3744 19.6113 18.4868 20.4617 19.2742C20.6081 19.3598 20.6676 19.4213 20.786 19.4836C20.8044 19.5192 20.8092 19.5274 20.8051 19.5369C20.7648 19.6396 20.7661 19.643 20.7292 19.7244C20.775 19.775 20.8605 19.8222 20.9119 19.8667C20.9598 19.8818 20.9598 19.8585 21.0418 19.8387C21.1486 19.9385 21.2806 20.0193 21.3285 20.0145C21.4735 19.9775 21.4482 20.0076 21.5707 19.8708C21.6145 19.8257 21.6884 19.8715 21.6884 19.8715C21.7342 19.8174 21.8327 19.71 21.9648 19.6327C22.0694 19.5705 22.2699 19.5643 22.2699 19.5643C22.3369 19.565 22.3246 19.6334 22.3185 19.656C22.2425 19.695 22.0818 19.7381 21.9921 19.8044C21.7958 20.0076 21.6418 20.2813 21.6418 20.2813C22.0373 20.2273 22.2802 20.3258 22.6099 20.2875C22.7898 20.2772 22.9226 20.2888 23.1107 20.152C23.1107 20.152 23.292 20.0227 23.4548 19.9543C23.6129 19.8852 23.7627 19.9221 23.9016 20.0234C23.9994 20.1342 24.0589 20.1349 23.9098 20.2909C23.8557 20.3518 23.7778 20.4195 23.6786 20.5173C23.5041 20.6897 23.2694 20.9196 23.0259 21.1098C22.7796 21.302 22.4998 21.4751 22.3253 21.5538C21.8847 21.8699 21.9887 21.7871 21.6425 22.1011C21.5987 22.1401 21.4831 22.2099 21.427 22.2475C21.2902 22.3372 21.2478 22.2626 21.1588 22.0984C21.1588 22.0984 21.1185 22.0368 21.0507 21.9062C20.9775 21.7632 20.9221 21.5997 20.9447 21.6024C20.8626 21.5921 20.4938 21.1591 20.4925 21.066C20.4145 21.0482 20.0813 20.726 20.0697 20.6644L19.7748 20.4277C19.4375 20.4982 19.3595 20.2881 18.4688 19.656C18.3668 19.6539 18.2102 19.5992 17.9844 19.4323C17.5821 19.11 16.6175 18.3814 16.4533 18.298C16.2774 18.2083 16.0674 18.1242 15.9388 18.0181C15.7459 17.9826 15.6405 17.9627 15.544 17.9354C15.4455 17.9087 15.3559 17.8738 15.1062 17.8403C14.6998 17.7896 14.2784 17.6213 13.8775 17.4209C13.6873 17.3306 13.5224 17.2847 13.3589 17.2149C12.9922 17.0603 12.6775 16.9208 12.4339 16.864C12.3409 16.8551 11.8989 16.7224 11.667 16.5869C11.5869 16.5452 11.5404 16.5062 11.487 16.4939C11.3653 16.4658 11.2873 16.5137 11.2325 16.5322C10.9349 16.6868 10.6565 16.8209 10.3992 16.9591C10.1598 17.087 9.9395 17.2204 9.70552 17.3545C9.4948 17.4763 9.25124 17.5912 9.00153 17.7103C9.00153 17.7103 8.28796 18.0681 7.898 18.207C7.56003 18.4827 6.86904 18.9602 6.44692 19.1969C6.23825 19.2961 5.83187 19.5534 5.6451 19.6108C5.53837 19.697 5.15798 19.9686 4.8597 20.1924C4.62982 20.3648 4.45536 20.5098 4.45536 20.5098C4.32196 20.6295 4.33085 20.6863 4.07635 20.5782C4.00588 20.6364 3.95115 20.6726 3.90599 20.7055C3.72264 20.8389 3.70691 20.8067 3.63986 20.8033C3.51192 20.9141 3.4955 20.8567 3.38399 20.9846C3.31078 21.0982 3.38536 21.0715 3.23074 21.1262C3.1979 21.1385 3.18285 21.1782 3.15754 21.2001C3.03302 21.3027 3.03234 21.5928 2.73405 21.6133C2.56096 21.7365 2.60543 21.8856 2.47339 21.8788C2.4816 22.0067 2.23941 22.1935 2.19631 22.1928C1.81592 22.3242 1.78924 22.0443 1.33223 22.253C1.27339 22.2797 1.1865 22.355 1.07225 22.3762C0.871112 22.4138 0.62824 22.3741 0.480464 22.2599C0.247169 22.0799 0.0330309 21.7337 0.0330309 21.7337C-0.0408571 21.5586 0.00224418 21.4478 0.233486 21.2822C0.329951 21.2206 0.347739 21.1748 0.509882 21.1639C0.589927 21.1337 0.568719 21.1803 0.711706 21.1283C0.795172 21.0982 0.795172 21.1194 0.962788 21.105C1.0011 21.079 1.05515 21.0701 1.12767 21.0462C1.26039 21.0024 1.3897 20.9538 1.3897 20.9538C1.3897 20.9538 1.42322 20.9196 1.55116 20.9319C1.65925 20.8875 1.77008 20.8225 1.82687 20.8019C1.8125 20.6309 1.83097 20.6391 1.91033 20.57C2.00885 20.4852 2.02664 20.4989 2.10053 20.5515C2.13131 20.5338 2.14636 20.5276 2.14294 20.5016C2.13063 20.4127 2.05469 20.3709 2.07727 20.1746C2.04306 20.0959 1.99312 19.9987 2.00406 19.9406C2.0198 19.8777 2.03553 19.8469 2.07384 19.827C2.11489 19.8051 2.12789 19.8346 2.14979 19.8592C2.18878 19.9043 2.22025 20.0391 2.22025 20.0391C2.23394 20.191 2.28114 20.3867 2.43097 20.2765C2.51922 20.1869 2.53633 19.9481 2.71694 19.9994L2.84556 20.1109C2.95434 20.0083 2.95982 20.0083 3.02549 19.9673C3.02549 19.9673 2.92356 19.864 3.01318 19.7832C3.07475 19.7285 3.14864 19.6895 3.28 19.5438C3.64123 19.1449 3.82663 18.9684 4.2166 18.6469C4.99516 18.0065 5.88181 17.557 6.44487 17.3333C6.62822 17.1 6.80678 16.9454 7.21453 16.9064C7.69891 16.0882 8.62661 15.3582 8.83939 15.2412C9.01247 14.9272 9.08773 14.9607 9.31487 14.8977C9.4948 14.7534 9.53516 14.7534 9.61589 14.6036C9.69389 14.293 9.43596 13.4638 10.0948 13.422C10.235 13.2243 10.2002 13.2715 10.3561 13.0847C10.2508 12.8241 10.207 12.6058 10.1783 12.4184C10.1728 12.3965 9.91623 12.2159 9.98944 11.9798C9.88066 11.8499 9.67678 11.5475 9.61316 11.4058C9.58374 11.4065 9.55979 11.3956 9.52764 11.3908C9.49411 11.3853 9.45306 11.3874 9.40654 11.3833C9.30392 11.648 9.19172 11.6679 9.00905 11.7267C8.68271 12.4218 8.56846 12.7153 7.64555 13.29C7.27953 13.6998 7.16254 14.1568 7.16391 14.15C7.10097 14.2854 7.12286 14.4749 7.15638 14.5762C7.10849 14.7267 7.1208 14.7418 7.1208 14.7418C7.14065 14.7985 7.19332 14.8738 7.25763 14.8895C7.36847 14.9189 7.4793 14.9142 7.47314 15.0373C7.45809 15.1919 7.25558 15.1666 7.1598 15.1495C6.79036 15.0907 6.90735 14.8505 6.67132 14.9306C6.4907 15.0489 6.42297 15.3979 6.12742 15.3527C6.08843 15.3267 6.10074 15.2508 6.12674 15.1953C6.16847 15.1091 6.24167 15.038 6.19789 15.0058C6.00633 15.066 5.62184 15.194 5.62184 15.194C5.44122 15.2432 5.24282 15.1529 5.4207 15.0346C5.50348 15.0024 5.62184 14.962 5.76756 14.869C5.76756 14.869 5.84282 14.7671 5.69846 14.8177C5.54111 14.8738 5.30918 14.9087 5.14293 14.8902C5.14293 14.8902 4.79812 14.8451 4.75365 14.8177C4.70918 14.7903 4.66813 14.6843 4.77623 14.6843C4.91306 14.6857 5.25513 14.6453 5.5199 14.5748C5.64783 14.5249 5.89139 14.3812 6.02822 14.3128C6.02822 14.3128 6.176 14.0973 6.25809 14.0542C6.39424 13.8975 6.50918 13.8052 6.62959 13.6451C6.74726 13.4022 6.86904 13.0177 7.259 12.4225C7.43893 12.1481 7.66333 11.8287 7.9452 11.5427C7.9452 11.5427 8.01841 11.085 8.38511 10.76C8.46584 10.5691 8.58899 10.3447 8.71008 10.1374C8.75729 10.0574 8.80176 9.98829 8.84691 9.91235C8.96048 9.73379 9.08021 9.40129 9.52285 9.3493C9.52285 9.3493 9.71236 9.20905 9.78488 9.10985C9.89845 9.0127 9.87245 8.86219 9.96481 8.75546C9.82387 8.61795 9.46264 8.35865 9.42775 7.99879C9.39012 7.61704 9.52627 7.30301 9.75751 7.0704C10.0134 6.81453 10.2836 6.68659 10.6113 6.70575C11.0204 6.76664 11.0978 6.9021 11.2284 7.03619C11.3536 7.16345 11.4002 7.08135 11.4528 7.23049C11.7963 7.32149 11.7771 7.2818 11.7744 7.53425C11.8271 7.60541 11.9153 7.67177 11.9146 7.81886C12.0303 7.57941 12.0528 7.53562 12.3614 7.27154C12.4346 7.0574 12.4838 6.84669 12.5482 6.63255C12.6084 6.43483 12.6829 6.23095 12.7411 6.0777C12.6795 5.64464 12.8061 5.57349 12.9744 5.19378C12.9443 5.14179 12.9511 5.12674 12.9634 5.04122C13.0291 4.79014 13.131 4.45833 13.1919 4.24213C13.1919 4.24213 13.2118 4.15593 13.3007 4.14977C13.378 3.87612 13.493 3.36643 13.5128 3.26243C13.5922 2.97578 13.5409 2.8841 13.48 2.72264C13.4601 2.66996 13.4697 2.59471 13.4355 2.53587C13.3397 2.36894 13.2364 2.15206 13.1666 1.99676C13.1215 1.89824 13.0496 1.52607 13.0496 1.52607C12.9833 1.33587 13.0366 1.52607 13.0366 1.52607Z"
        fill="black" />
</svg>
