<svg width="16" height="16" viewBox="0 0 16 16" fill="none" xmlns="http://www.w3.org/2000/svg">
    <path
        d="M13.8611 3.07455C13.5206 2.73389 13.1163 2.46365 12.6713 2.27927C12.2264 2.0949 11.7494 2 11.2678 2C10.7861 2 10.3092 2.0949 9.8642 2.27927C9.41923 2.46365 9.01494 2.73389 8.67444 3.07455L7.96777 3.78122L7.2611 3.07455C6.57331 2.38676 5.64046 2.00036 4.66777 2.00036C3.69508 2.00036 2.76223 2.38676 2.07444 3.07455C1.38664 3.76235 1.00024 4.69519 1.00024 5.66788C1.00024 6.64057 1.38664 7.57342 2.07444 8.26122L2.7811 8.96788L7.96777 14.1546L13.1544 8.96788L13.8611 8.26122C14.2018 7.92071 14.472 7.51643 14.6564 7.07145C14.8408 6.62648 14.9357 6.14954 14.9357 5.66788C14.9357 5.18623 14.8408 4.70929 14.6564 4.26431C14.472 3.81934 14.2018 3.41505 13.8611 3.07455V3.07455Z"
        stroke="#12121D" stroke-width="1.5" stroke-linecap="round" stroke-linejoin="round" />
</svg>
