<svg width="24" height="24" viewBox="0 0 24 24" fill="none" xmlns="http://www.w3.org/2000/svg">
    <path fill-rule="evenodd" clip-rule="evenodd"
        d="M24 12.073C24 5.40577 18.6269 0 12 0C5.37309 0 0 5.40577 0 12.073C0 18.0984 4.38761 23.0933 10.1252 24V15.5636H7.07748V12.073H10.1252V9.41251C10.1252 6.38703 11.9173 4.7147 14.6578 4.7147C15.9707 4.7147 17.3444 4.95069 17.3444 4.95069V7.92186H15.8306C14.3406 7.92186 13.8748 8.85225 13.8748 9.80808V12.0729H17.2026L16.671 15.5636H13.8747V23.9999C19.6123 23.0949 23.9999 18.1 23.9999 12.0729L24 12.073Z"
        fill="#1977F3" />
</svg>
