<svg width="49" height="31" viewBox="0 0 49 31" fill="none" xmlns="http://www.w3.org/2000/svg">
    <path d="M30.567 27.373H17.5844V3.78731H30.567V27.373Z" fill="#FF5F00" />
    <path
        d="M18.416 15.5782C18.416 10.7938 20.6321 6.5319 24.083 3.78538C21.5594 1.77699 18.3745 0.578247 14.9132 0.578247C6.71886 0.578247 0.076416 7.29387 0.076416 15.5782C0.076416 23.8626 6.71886 30.5782 14.9132 30.5782C18.3745 30.5782 21.5594 29.3795 24.083 27.3711C20.6321 24.6246 18.416 20.3627 18.416 15.5782Z"
        fill="#EB001B" />
    <path
        d="M48.0764 15.5782C48.0764 23.8626 41.4339 30.5782 33.2396 30.5782C29.7783 30.5782 26.5934 29.3795 24.0688 27.3711C27.5207 24.6246 29.7368 20.3627 29.7368 15.5782C29.7368 10.7938 27.5207 6.5319 24.0688 3.78538C26.5934 1.77699 29.7783 0.578247 33.2396 0.578247C41.4339 0.578247 48.0764 7.29387 48.0764 15.5782Z"
        fill="#F79E1B" />
</svg>
