<svg width="24" height="24" viewBox="0 0 24 24" fill="none" xmlns="http://www.w3.org/2000/svg">
<path d="M11.8896 12.9451C12.4419 12.9451 12.8896 12.4974 12.8896 11.9451C12.8896 11.3928 12.4419 10.9451 11.8896 10.9451C11.3374 10.9451 10.8896 11.3928 10.8896 11.9451C10.8896 12.4974 11.3374 12.9451 11.8896 12.9451Z" stroke="#12121D" stroke-width="1.5" stroke-linecap="round" stroke-linejoin="round"/>
<path d="M18.8896 12.9451C19.4419 12.9451 19.8896 12.4974 19.8896 11.9451C19.8896 11.3928 19.4419 10.9451 18.8896 10.9451C18.3374 10.9451 17.8896 11.3928 17.8896 11.9451C17.8896 12.4974 18.3374 12.9451 18.8896 12.9451Z" stroke="#12121D" stroke-width="1.5" stroke-linecap="round" stroke-linejoin="round"/>
<path d="M4.88965 12.9451C5.44193 12.9451 5.88965 12.4974 5.88965 11.9451C5.88965 11.3928 5.44193 10.9451 4.88965 10.9451C4.33736 10.9451 3.88965 11.3928 3.88965 11.9451C3.88965 12.4974 4.33736 12.9451 4.88965 12.9451Z" stroke="#12121D" stroke-width="1.5" stroke-linecap="round" stroke-linejoin="round"/>
</svg>
