<svg width="24" height="24" viewBox="0 0 24 24" fill="none" xmlns="http://www.w3.org/2000/svg">
    <path fill-rule="evenodd" clip-rule="evenodd"
        d="M7.80206 13.5009L6.84204 15.1533L1.5282 14.8554L2.06021 13.9349L7.80206 13.5009ZM11.6434 8.23561L12.1249 10.0592L4.58494 9.5654L5.11662 8.6453L11.6434 8.23561ZM6.64482 6.00032L11.0583 6.00357L11.3915 7.25052L6.1138 6.92043L6.64482 6.00032ZM6.2569 16.1809L5.49052 17.4942L0 17.5L0.531677 16.5802L6.2569 16.1809ZM15.8965 12.6379L14.5675 14.934H15.8333C16.4197 14.934 17.4707 14.6422 17.7941 13.8098C18.0936 13.0363 17.5431 12.637 17.1587 12.637L15.8965 12.6379ZM17.1639 10.4416L18.268 10.4348C19.0028 10.4309 19.7692 10.096 20.0495 9.41628C20.308 8.78565 19.9605 8.2486 19.4999 8.25055L18.432 8.24925L17.1639 10.4416ZM12.1663 10.0592L13.2812 8.13164L17.0544 7.89024L17.1861 7.65632L13.6958 7.41297L14.5121 6.00032L20.9848 6C22.9752 6 24.4477 6.70925 23.8753 8.79508C23.7031 9.427 22.8941 11.0177 20.5212 11.684C21.0249 11.7438 22.2793 12.2978 22.0631 13.7338C21.6791 16.2803 18.3711 17.4925 16.5309 17.4932L8.88921 17.4968L8.5127 16.0234L12.5151 15.742L12.651 15.5087L8.30994 15.2452L7.84216 13.4986L14.0192 13.1393L14.1535 12.9079L3.05608 12.2101L3.58776 11.2903L15.5331 10.5173L15.6683 10.2857L12.1663 10.0592Z"
        fill="#12121D" />
</svg>
