<svg width="24" height="8" viewBox="0 0 24 8" fill="none" xmlns="http://www.w3.org/2000/svg">
    <path
        d="M2.64738 7.99675C1.93228 7.97018 1.34722 7.78717 0.88975 7.44725C0.802444 7.38232 0.594403 7.18762 0.524607 7.10551C0.339097 6.88734 0.212975 6.67501 0.128853 6.43943C-0.130004 5.71425 0.00322034 4.76266 0.509914 3.7183C0.94375 2.8242 1.61318 1.93743 2.78109 0.709259C2.95313 0.528538 3.46546 0 3.46877 0C3.46999 0 3.44207 0.0452384 3.40693 0.100325C3.10326 0.576064 2.84342 1.13644 2.70187 1.62157C2.47448 2.4 2.50191 3.06803 2.78219 3.58603C2.97554 3.94289 3.30701 4.25199 3.67974 4.42286C4.33227 4.72189 5.28762 4.74663 6.45431 4.49524C6.53464 4.47784 10.515 3.48959 15.2995 2.2991C20.0841 1.10849 23.9994 0.135141 24 0.135943C24.0013 0.136974 12.8841 4.58629 7.11297 6.89455C6.19901 7.26001 5.9546 7.35231 5.52493 7.49341C4.42656 7.85416 3.44268 8.0263 2.64738 7.99675Z"
        fill="#12121D" />
</svg>
