<svg width="24" height="24" viewBox="0 0 24 24" fill="none" xmlns="http://www.w3.org/2000/svg">
<path d="M18.8521 10.6919H4.85205C3.74748 10.6919 2.85205 11.5873 2.85205 12.6919V19.6919C2.85205 20.7965 3.74748 21.6919 4.85205 21.6919H18.8521C19.9566 21.6919 20.8521 20.7965 20.8521 19.6919V12.6919C20.8521 11.5873 19.9566 10.6919 18.8521 10.6919Z" stroke="#12121D" stroke-width="1.5" stroke-linecap="round" stroke-linejoin="round"/>
<path d="M6.85205 10.6919V6.69189C6.85205 5.36581 7.37883 4.09404 8.31652 3.15636C9.2542 2.21868 10.526 1.69189 11.8521 1.69189C13.1781 1.69189 14.4499 2.21868 15.3876 3.15636C16.3253 4.09404 16.8521 5.36581 16.8521 6.69189V10.6919" stroke="#12121D" stroke-width="1.5" stroke-linecap="round" stroke-linejoin="round"/>
</svg>
