<svg width="24" height="24" viewBox="0 0 24 24" fill="none" xmlns="http://www.w3.org/2000/svg">
<path d="M12.0708 15.1934C13.7277 15.1934 15.0708 13.8502 15.0708 12.1934C15.0708 10.5365 13.7277 9.19336 12.0708 9.19336C10.4139 9.19336 9.0708 10.5365 9.0708 12.1934C9.0708 13.8502 10.4139 15.1934 12.0708 15.1934Z" stroke="#12121D" stroke-width="1.5" stroke-linecap="round" stroke-linejoin="round"/>
<path d="M19.4708 15.1934C19.3377 15.495 19.298 15.8296 19.3568 16.1539C19.4156 16.4783 19.5703 16.7777 19.8008 17.0134L19.8608 17.0734C20.0468 17.2591 20.1943 17.4797 20.2949 17.7225C20.3956 17.9653 20.4474 18.2255 20.4474 18.4884C20.4474 18.7512 20.3956 19.0114 20.2949 19.2542C20.1943 19.497 20.0468 19.7176 19.8608 19.9034C19.6751 20.0893 19.4545 20.2368 19.2117 20.3375C18.9689 20.4381 18.7086 20.4899 18.4458 20.4899C18.183 20.4899 17.9227 20.4381 17.6799 20.3375C17.4371 20.2368 17.2165 20.0893 17.0308 19.9034L16.9708 19.8434C16.7351 19.6128 16.4358 19.4582 16.1114 19.3994C15.787 19.3405 15.4524 19.3802 15.1508 19.5134C14.855 19.6401 14.6028 19.8506 14.4251 20.1189C14.2474 20.3872 14.1521 20.7016 14.1508 21.0234V21.1934C14.1508 21.7238 13.9401 22.2325 13.565 22.6076C13.1899 22.9826 12.6812 23.1934 12.1508 23.1934C11.6204 23.1934 11.1117 22.9826 10.7366 22.6076C10.3615 22.2325 10.1508 21.7238 10.1508 21.1934V21.1034C10.1431 20.7724 10.0359 20.4514 9.84331 20.1821C9.6507 19.9128 9.38154 19.7076 9.0708 19.5934C8.76918 19.4602 8.43461 19.4205 8.11021 19.4794C7.78582 19.5382 7.48648 19.6928 7.2508 19.9234L7.1908 19.9834C7.00505 20.1693 6.78448 20.3168 6.54168 20.4175C6.29889 20.5181 6.03863 20.5699 5.7758 20.5699C5.51297 20.5699 5.25272 20.5181 5.00992 20.4175C4.76712 20.3168 4.54655 20.1693 4.3608 19.9834C4.17485 19.7976 4.02733 19.577 3.92668 19.3342C3.82603 19.0914 3.77423 18.8312 3.77423 18.5684C3.77423 18.3055 3.82603 18.0453 3.92668 17.8025C4.02733 17.5597 4.17485 17.3391 4.3608 17.1534L4.4208 17.0934C4.65134 16.8577 4.80599 16.5583 4.86481 16.2339C4.92362 15.9096 4.88392 15.575 4.7508 15.2734C4.62404 14.9776 4.41356 14.7253 4.14527 14.5477C3.87698 14.37 3.56259 14.2746 3.2408 14.2734H3.0708C2.54037 14.2734 2.03166 14.0626 1.65659 13.6876C1.28151 13.3125 1.0708 12.8038 1.0708 12.2734C1.0708 11.7429 1.28151 11.2342 1.65659 10.8591C2.03166 10.4841 2.54037 10.2734 3.0708 10.2734H3.1608C3.4918 10.2656 3.81281 10.1585 4.0821 9.96587C4.35139 9.77326 4.55652 9.50409 4.6708 9.19336C4.80392 8.89174 4.84362 8.55717 4.78481 8.23277C4.72599 7.90838 4.57134 7.60904 4.3408 7.37336L4.2808 7.31336C4.09485 7.12761 3.94733 6.90704 3.84668 6.66424C3.74603 6.42144 3.69423 6.16119 3.69423 5.89836C3.69423 5.63553 3.74603 5.37527 3.84668 5.13248C3.94733 4.88968 4.09485 4.66911 4.2808 4.48336C4.46655 4.29741 4.68712 4.14989 4.92992 4.04924C5.17272 3.94859 5.43297 3.89679 5.6958 3.89679C5.95863 3.89679 6.21889 3.94859 6.46168 4.04924C6.70448 4.14989 6.92505 4.29741 7.1108 4.48336L7.1708 4.54336C7.40648 4.7739 7.70582 4.92854 8.03021 4.98736C8.35461 5.04618 8.68918 5.00647 8.9908 4.87336H9.0708C9.36657 4.7466 9.61882 4.53611 9.79649 4.26782C9.97417 3.99953 10.0695 3.68515 10.0708 3.36336V3.19336C10.0708 2.66293 10.2815 2.15422 10.6566 1.77915C11.0317 1.40407 11.5404 1.19336 12.0708 1.19336C12.6012 1.19336 13.1099 1.40407 13.485 1.77915C13.8601 2.15422 14.0708 2.66293 14.0708 3.19336V3.28336C14.0721 3.60515 14.1674 3.91953 14.3451 4.18782C14.5228 4.45612 14.775 4.6666 15.0708 4.79336C15.3724 4.92647 15.707 4.96618 16.0314 4.90736C16.3558 4.84854 16.6551 4.6939 16.8908 4.46336L16.9508 4.40336C17.1365 4.21741 17.3571 4.06989 17.5999 3.96924C17.8427 3.86859 18.103 3.81679 18.3658 3.81679C18.6286 3.81679 18.8889 3.86859 19.1317 3.96924C19.3745 4.06989 19.5951 4.21741 19.7808 4.40336C19.9668 4.58911 20.1143 4.80968 20.2149 5.05248C20.3156 5.29527 20.3674 5.55553 20.3674 5.81836C20.3674 6.08119 20.3156 6.34144 20.2149 6.58424C20.1143 6.82704 19.9668 7.04761 19.7808 7.23336L19.7208 7.29336C19.4903 7.52904 19.3356 7.82838 19.2768 8.15277C19.218 8.47717 19.2577 8.81174 19.3908 9.11336V9.19336C19.5176 9.48913 19.728 9.74138 19.9963 9.91905C20.2646 10.0967 20.579 10.1921 20.9008 10.1934H21.0708C21.6012 10.1934 22.1099 10.4041 22.485 10.7791C22.8601 11.1542 23.0708 11.6629 23.0708 12.1934C23.0708 12.7238 22.8601 13.2325 22.485 13.6076C22.1099 13.9826 21.6012 14.1934 21.0708 14.1934H20.9808C20.659 14.1946 20.3446 14.29 20.0763 14.4677C19.808 14.6453 19.5976 14.8976 19.4708 15.1934V15.1934Z" stroke="#12121D" stroke-width="1.5" stroke-linecap="round" stroke-linejoin="round"/>
</svg>
