<svg width="24" height="24" viewBox="0 0 24 24" fill="none" xmlns="http://www.w3.org/2000/svg">
    <mask id="mask0" mask-type="alpha" maskUnits="userSpaceOnUse" x="0" y="4" width="24"
        height="16">
        <rect y="4" width="24" height="16" rx="2" fill="#C4C4C4" />
    </mask>
    <g mask="url(#mask0)">
        <path d="M24 4H0V20.0002H24V4Z" fill="#F0F0F0" />
        <path d="M24 5.99976H0V7.99958H24V5.99976Z" fill="#D80027" />
        <path d="M24 10H0V11.9998H24V10Z" fill="#D80027" />
        <path d="M24 13.9995H0V15.9993H24V13.9995Z" fill="#D80027" />
        <path d="M24 17.9998H0V19.9996H24V17.9998Z" fill="#D80027" />
        <path d="M12 4H0V12.6155H12V4Z" fill="#2E52B2" />
        <path
            d="M4.67923 7.5293L4.48596 8.12386H3.86084L4.36667 8.49113L4.1734 9.08564L4.67923 8.71838L5.18473 9.08564L4.99151 8.49113L5.49734 8.12386H4.87217L4.67923 7.5293Z"
            fill="#F0F0F0" />
        <path
            d="M4.87217 10.2693L4.67923 9.6748L4.48596 10.2693H3.86084L4.36667 10.6366L4.1734 11.2311L4.67923 10.8638L5.18473 11.2311L4.99151 10.6366L5.49734 10.2693H4.87217Z"
            fill="#F0F0F0" />
        <path
            d="M2.23012 10.2693L2.03714 9.6748L1.84388 10.2693H1.21875L1.72458 10.6366L1.53131 11.2311L2.03714 10.8638L2.54269 11.2311L2.34947 10.6366L2.8552 10.2693H2.23012Z"
            fill="#F0F0F0" />
        <path
            d="M2.03714 7.5293L1.84388 8.12386H1.21875L1.72458 8.49113L1.53131 9.08564L2.03714 8.71838L2.54269 9.08564L2.34947 8.49113L2.8552 8.12386H2.23012L2.03714 7.5293Z"
            fill="#F0F0F0" />
        <path
            d="M4.67923 5.38354L4.48596 5.97815H3.86084L4.36667 6.34547L4.1734 6.93998L4.67923 6.57267L5.18473 6.93998L4.99151 6.34547L5.49734 5.97815H4.87217L4.67923 5.38354Z"
            fill="#F0F0F0" />
        <path
            d="M2.03714 5.38354L1.84388 5.97815H1.21875L1.72458 6.34547L1.53131 6.93998L2.03714 6.57267L2.54269 6.93998L2.34947 6.34547L2.8552 5.97815H2.23012L2.03714 5.38354Z"
            fill="#F0F0F0" />
        <path
            d="M7.32103 7.5293L7.12781 8.12386H6.50269L7.00847 8.49113L6.81529 9.08564L7.32103 8.71838L7.82662 9.08564L7.63336 8.49113L8.13918 8.12386H7.51406L7.32103 7.5293Z"
            fill="#F0F0F0" />
        <path
            d="M7.51406 10.2693L7.32103 9.6748L7.12781 10.2693H6.50269L7.00847 10.6366L6.81529 11.2311L7.32103 10.8638L7.82662 11.2311L7.63336 10.6366L8.13918 10.2693H7.51406Z"
            fill="#F0F0F0" />
        <path
            d="M10.1561 10.2693L9.96312 9.6748L9.76985 10.2693H9.14478L9.65051 10.6366L9.45729 11.2311L9.96312 10.8638L10.4687 11.2311L10.2754 10.6366L10.7812 10.2693H10.1561Z"
            fill="#F0F0F0" />
        <path
            d="M9.96312 7.5293L9.76985 8.12386H9.14478L9.65051 8.49113L9.45729 9.08564L9.96312 8.71838L10.4687 9.08564L10.2754 8.49113L10.7812 8.12386H10.1561L9.96312 7.5293Z"
            fill="#F0F0F0" />
        <path
            d="M7.32103 5.38354L7.12781 5.97815H6.50269L7.00847 6.34547L6.81529 6.93998L7.32103 6.57267L7.82662 6.93998L7.63336 6.34547L8.13918 5.97815H7.51406L7.32103 5.38354Z"
            fill="#F0F0F0" />
        <path
            d="M9.96312 5.38354L9.76985 5.97815H9.14478L9.65051 6.34547L9.45729 6.93998L9.96312 6.57267L10.4687 6.93998L10.2754 6.34547L10.7812 5.97815H10.1561L9.96312 5.38354Z"
            fill="#F0F0F0" />
    </g>
</svg>
