<svg width="24" height="24" viewBox="0 0 24 24" fill="none" xmlns="http://www.w3.org/2000/svg">
<rect width="24" height="24" rx="12" fill="#12121D" fill-opacity="0.05"/>
<path d="M12 6V18" stroke="black" stroke-width="1.5" stroke-linecap="round" stroke-linejoin="round"/>
<path d="M15.3333 8H10.3333C9.71449 8 9.121 8.21071 8.68342 8.58579C8.24583 8.96086 8 9.46957 8 10C8 10.5304 8.24583 11.0391 8.68342 11.4142C9.121 11.7893 9.71449 12 10.3333 12H13.6667C14.2855 12 14.879 12.2107 15.3166 12.5858C15.7542 12.9609 16 13.4696 16 14C16 14.5304 15.7542 15.0391 15.3166 15.4142C14.879 15.7893 14.2855 16 13.6667 16H8" stroke="black" stroke-width="1.5" stroke-linecap="round" stroke-linejoin="round"/>
</svg>
