<svg width="24" height="24" viewBox="0 0 24 24" fill="none" xmlns="http://www.w3.org/2000/svg">
    <path
        d="M23.4486 12.0118H22.0575C21.9191 11.6737 21.7731 11.4047 20.9969 11.4047C20.4589 11.4047 20.2283 11.6276 20.2283 11.8505C20.2283 12.0964 20.4205 12.2962 21.0123 12.4269L22.2727 12.765C23.095 12.9879 23.4947 13.6412 23.4947 14.3252C23.4947 14.7095 23.4101 15.1706 23.0489 15.5549C22.7799 15.8392 22.3649 16.2158 20.9969 16.2158C19.1216 16.2158 18.4991 15.0323 18.4991 14.3098H19.9593C20.1054 14.8324 20.4589 15.0323 21.1736 15.0323C21.6655 15.0323 22.0882 14.8555 22.0882 14.4789C22.0882 14.1177 21.7808 13.987 21.3888 13.8794L20.3974 13.6104C19.9209 13.4644 19.5213 13.3491 19.2369 13.1109C18.4991 12.4807 18.5529 11.3509 19.3522 10.7668C19.7979 10.444 20.2514 10.2749 20.9815 10.2749C21.8346 10.2749 22.3188 10.5209 22.7031 10.7822C23.0335 10.9974 23.4409 11.5661 23.4486 12.0118ZM0 8C0.0153711 8.04611 2.90513 16.1467 2.90513 16.1467H4.63438L7.29357 9.40645H23.8175L23.9404 8H6.02546L3.81971 13.5874L1.83684 8H0ZM14.2874 13.2338L16.447 16.1467H17.7997V10.3825H16.2472V13.5182L14.2951 10.3902H12.8041V16.1467H14.2951V13.2338H14.2874ZM23.9942 15.8469C23.9942 15.6778 23.8559 15.5395 23.6868 15.5395C23.5177 15.5395 23.3794 15.6778 23.3794 15.8469C23.3794 16.016 23.5177 16.1544 23.6868 16.1544C23.8559 16.1544 24.0019 16.016 23.9942 15.8469C24.0019 15.8469 24.0019 15.8469 23.9942 15.8469ZM23.9635 15.8469C23.9635 15.993 23.8405 16.1159 23.6945 16.1159C23.5485 16.1159 23.4255 15.993 23.4255 15.8469C23.4255 15.7009 23.5485 15.5779 23.6945 15.5779C23.8405 15.5703 23.9635 15.6855 23.9635 15.8469C23.9635 15.8392 23.9635 15.8392 23.9635 15.8469ZM23.8328 15.7778C23.8328 15.7163 23.779 15.6702 23.7252 15.6702C23.7176 15.6702 23.7176 15.6702 23.7099 15.6702H23.5638V15.993H23.633V15.8854H23.6868L23.756 15.993H23.8405L23.7637 15.8777C23.8098 15.87 23.8405 15.8239 23.8328 15.7778ZM23.7637 15.7854C23.7637 15.8085 23.7406 15.8316 23.7176 15.8316H23.7099H23.6407V15.7393H23.7099C23.7329 15.7316 23.7637 15.747 23.7714 15.7701C23.7637 15.7778 23.7714 15.7778 23.7637 15.7854ZM6.06389 16.1467H7.72396L8.03138 15.2475H10.2218L10.5369 16.1467H12.1662L10.0757 10.3902H8.31575L6.06389 16.1467ZM8.49251 14.2022L9.1381 12.2885L9.76831 14.2022H8.49251Z"
        fill="#12121D" />
</svg>
